STARTFONT 2.3
FONT -FontForge-Zen Tokyo Zoo-Book-R-Normal--14-140-72-72-P-65-ISO10646-1
SIZE 14 72 72  4
FONTBOUNDINGBOX 19 20 -2 -4
COMMENT "Generated by fontforge, http://fontforge.sourceforge.net"
COMMENT "Copyright 2021 The Zen Tokyo Zoo Project Authors (https://github.com/googlefonts/zen-tokyo-zoo)"
STARTPROPERTIES 40
FOUNDRY "FontForge"
FAMILY_NAME "Zen Tokyo Zoo"
WEIGHT_NAME "Book"
SLANT "R"
SETWIDTH_NAME "Normal"
ADD_STYLE_NAME ""
PIXEL_SIZE 14
POINT_SIZE 140
RESOLUTION_X 72
RESOLUTION_Y 72
SPACING "P"
AVERAGE_WIDTH 65
CHARSET_REGISTRY "ISO10646"
CHARSET_ENCODING "1"
FONTNAME_REGISTRY ""
CHARSET_COLLECTIONS "ISO10646-1"
BITS_PER_PIXEL 4
FONT_NAME "ZenTokyoZoo-Regular"
FACE_NAME "Zen Tokyo Zoo Regular"
COPYRIGHT "Copyright 2021 The Zen Tokyo Zoo Project Authors (https://github.com/googlefonts/zen-tokyo-zoo)"
FONT_VERSION "1.002; ttfautohint (v1.8.3)"
FONT_ASCENT 11
FONT_DESCENT 3
UNDERLINE_POSITION -2
UNDERLINE_THICKNESS 1
X_HEIGHT 5
CAP_HEIGHT 11
RAW_ASCENT 800
RAW_DESCENT 200
NORM_SPACE 4
RELATIVE_WEIGHT 40
RELATIVE_SETWIDTH 50
SUPERSCRIPT_X 0
SUPERSCRIPT_Y 4
SUPERSCRIPT_SIZE 8
SUBSCRIPT_X 0
SUBSCRIPT_Y 1
SUBSCRIPT_SIZE 8
AVG_LOWERCASE_WIDTH 57
AVG_UPPERCASE_WIDTH 106
ENDPROPERTIES
CHARS 338
STARTCHAR CR
ENCODING 13
SWIDTH 600 0
DWIDTH 8 0
BBX 1 1 0 0
BITMAP
00
ENDCHAR
STARTCHAR space
ENCODING 32
SWIDTH 280 0
DWIDTH 4 0
BBX 1 1 0 0
BITMAP
00
ENDCHAR
STARTCHAR exclam
ENCODING 33
SWIDTH 196 0
DWIDTH 3 0
BBX 3 6 0 0
BITMAP
4810
4810
4810
4810
2300
4810
ENDCHAR
STARTCHAR quotedbl
ENCODING 34
SWIDTH 302 0
DWIDTH 4 0
BBX 4 2 0 4
BITMAP
6666
6666
ENDCHAR
STARTCHAR numbersign
ENCODING 35
SWIDTH 513 0
DWIDTH 7 0
BBX 7 6 0 0
BITMAP
00663400
04777730
04559830
27757700
27768600
06657000
ENDCHAR
STARTCHAR dollar
ENCODING 36
SWIDTH 379 0
DWIDTH 5 0
BBX 5 7 0 -1
BITMAP
026200
476460
667210
167640
114860
566470
036300
ENDCHAR
STARTCHAR percent
ENCODING 37
SWIDTH 493 0
DWIDTH 7 0
BBX 7 6 0 0
BITMAP
4C907700
75767200
27676000
00677710
04765460
07618730
ENDCHAR
STARTCHAR ampersand
ENCODING 38
SWIDTH 487 0
DWIDTH 7 0
BBX 7 6 0 0
BITMAP
01AC6000
05867000
02586000
06855630
36677200
08767700
ENDCHAR
STARTCHAR quotesingle
ENCODING 39
SWIDTH 146 0
DWIDTH 2 0
BBX 2 2 0 4
BITMAP
66
66
ENDCHAR
STARTCHAR parenleft
ENCODING 40
SWIDTH 210 0
DWIDTH 3 0
BBX 3 7 0 0
BITMAP
0330
2840
6700
6600
6600
4710
0760
ENDCHAR
STARTCHAR parenright
ENCODING 41
SWIDTH 210 0
DWIDTH 3 0
BBX 3 7 0 0
BITMAP
3300
4710
0750
0660
0760
2830
6700
ENDCHAR
STARTCHAR asterisk
ENCODING 42
SWIDTH 358 0
DWIDTH 5 0
BBX 5 4 0 2
BITMAP
019100
160610
043500
021300
ENDCHAR
STARTCHAR plus
ENCODING 43
SWIDTH 394 0
DWIDTH 6 0
BBX 5 5 0 1
BITMAP
002200
006600
346760
346760
006600
ENDCHAR
STARTCHAR comma
ENCODING 44
SWIDTH 216 0
DWIDTH 3 0
BBX 3 2 0 -1
BITMAP
1750
5710
ENDCHAR
STARTCHAR hyphen
ENCODING 45
SWIDTH 326 0
DWIDTH 5 0
BBX 4 2 0 2
BITMAP
2776
2776
ENDCHAR
STARTCHAR period
ENCODING 46
SWIDTH 176 0
DWIDTH 2 0
BBX 2 2 0 0
BITMAP
11
66
ENDCHAR
STARTCHAR slash
ENCODING 47
SWIDTH 298 0
DWIDTH 4 0
BBX 4 6 0 0
BITMAP
0077
0274
0670
0770
2750
6710
ENDCHAR
STARTCHAR zero
ENCODING 48
SWIDTH 306 0
DWIDTH 4 0
BBX 4 6 0 0
BITMAP
2AC4
6666
6666
6666
6456
2764
ENDCHAR
STARTCHAR one
ENCODING 49
SWIDTH 306 0
DWIDTH 4 0
BBX 4 6 0 0
BITMAP
2566
2566
0066
0066
0066
0066
ENDCHAR
STARTCHAR two
ENCODING 50
SWIDTH 299 0
DWIDTH 4 0
BBX 4 6 0 0
BITMAP
1874
6466
0474
2560
4775
4775
ENDCHAR
STARTCHAR three
ENCODING 51
SWIDTH 324 0
DWIDTH 5 0
BBX 5 6 0 0
BITMAP
176600
637610
005500
005700
646610
176600
ENDCHAR
STARTCHAR four
ENCODING 52
SWIDTH 339 0
DWIDTH 5 0
BBX 5 6 0 0
BITMAP
026600
076100
167000
474650
002650
474650
ENDCHAR
STARTCHAR five
ENCODING 53
SWIDTH 363 0
DWIDTH 5 0
BBX 4 6 1 0
BITMAP
6662
6662
7720
6672
6645
6671
ENDCHAR
STARTCHAR six
ENCODING 54
SWIDTH 306 0
DWIDTH 4 0
BBX 4 6 0 0
BITMAP
2BC6
6611
6652
6667
6466
2764
ENDCHAR
STARTCHAR seven
ENCODING 55
SWIDTH 298 0
DWIDTH 4 0
BBX 4 6 0 0
BITMAP
3775
3775
0065
0373
0670
0660
ENDCHAR
STARTCHAR eight
ENCODING 56
SWIDTH 306 0
DWIDTH 4 0
BBX 4 6 0 0
BITMAP
3AB5
6747
4592
6578
6466
2764
ENDCHAR
STARTCHAR nine
ENCODING 57
SWIDTH 306 0
DWIDTH 4 0
BBX 4 6 0 0
BITMAP
2BC4
6576
6166
0676
6356
2764
ENDCHAR
STARTCHAR colon
ENCODING 58
SWIDTH 176 0
DWIDTH 2 0
BBX 2 3 0 0
BITMAP
66
22
66
ENDCHAR
STARTCHAR semicolon
ENCODING 59
SWIDTH 217 0
DWIDTH 3 0
BBX 3 5 0 -2
BITMAP
0660
0110
0540
4720
1100
ENDCHAR
STARTCHAR less
ENCODING 60
SWIDTH 450 0
DWIDTH 6 0
BBX 6 7 0 -1
BITMAP
000025
000675
026461
276720
005775
000165
000001
ENDCHAR
STARTCHAR equal
ENCODING 61
SWIDTH 344 0
DWIDTH 5 0
BBX 5 4 0 0
BITMAP
377720
377720
377720
377720
ENDCHAR
STARTCHAR greater
ENCODING 62
SWIDTH 450 0
DWIDTH 6 0
BBX 6 6 0 0
BITMAP
350000
367300
037672
015542
377500
361000
ENDCHAR
STARTCHAR question
ENCODING 63
SWIDTH 346 0
DWIDTH 5 0
BBX 5 6 0 0
BITMAP
077700
357610
006810
028500
036100
036100
ENDCHAR
STARTCHAR at
ENCODING 64
SWIDTH 490 0
DWIDTH 7 0
BBX 7 6 0 0
BITMAP
04A99300
38566820
55758550
55757440
39567500
04AB7000
ENDCHAR
STARTCHAR A
ENCODING 65
SWIDTH 798 0
DWIDTH 11 0
BBX 11 12 0 0
BITMAP
000067700000
000277550000
000677470000
000677771000
003774775000
006770777000
007770577100
037767577500
067757677700
077777777710
377300017750
777000007770
ENDCHAR
STARTCHAR B
ENCODING 66
SWIDTH 784 0
DWIDTH 11 0
BBX 11 12 0 0
BITMAP
487377776000
487377773600
487377777700
487000047700
487377777700
487377776600
487377774640
487000006660
487000006660
487477777540
487477774800
487477777100
ENDCHAR
STARTCHAR C
ENCODING 67
SWIDTH 776 0
DWIDTH 11 0
BBX 11 12 0 0
BITMAP
000566666000
007367774810
064877776520
168820006000
677200000000
676000000000
666000000000
667200000000
167820005000
064767776520
007356663810
000566666000
ENDCHAR
STARTCHAR D
ENCODING 68
SWIDTH 806 0
DWIDTH 11 0
BBX 11 12 0 0
BITMAP
487377761000
487377638200
487377675800
487000176650
487000007770
487000007760
487000007760
487000007770
487000176650
487377776800
487377738200
487377761000
ENDCHAR
STARTCHAR E
ENCODING 69
SWIDTH 677 0
DWIDTH 9 0
BBX 9 12 0 0
BITMAP
4873777770
4873777770
4873777770
4870000000
4870000000
4873777720
4873777720
4873777720
4870000000
4873777770
4873777770
4873777770
ENDCHAR
STARTCHAR F
ENCODING 70
SWIDTH 677 0
DWIDTH 9 0
BBX 9 12 0 0
BITMAP
4873777770
4873777770
4873777770
4870000000
4870000000
4873777720
4873777720
4873777720
4870000000
4870000000
4870000000
4870000000
ENDCHAR
STARTCHAR G
ENCODING 71
SWIDTH 872 0
DWIDTH 12 0
BBX 12 12 0 0
BITMAP
000566666100
007367774720
064877777770
168820005640
677200000000
676000577775
666000466665
667200466665
167820005566
064767776671
007356663730
000566666100
ENDCHAR
STARTCHAR H
ENCODING 72
SWIDTH 781 0
DWIDTH 11 0
BBX 11 12 0 0
BITMAP
487000008840
487000008840
487000008840
487000008840
487000008840
487377748840
487377748840
487377748840
487000008840
487000008840
487000008840
487000008840
ENDCHAR
STARTCHAR I
ENCODING 73
SWIDTH 262 0
DWIDTH 4 0
BBX 3 12 0 0
BITMAP
4870
4870
4870
4870
4870
4870
4870
4870
4870
4870
4870
4870
ENDCHAR
STARTCHAR J
ENCODING 74
SWIDTH 674 0
DWIDTH 9 0
BBX 9 12 0 0
BITMAP
0000006660
0000006660
0000006660
0000006660
0000006660
0000006660
0000006660
6660006660
6761017660
4576667450
0736663700
0066666000
ENDCHAR
STARTCHAR K
ENCODING 75
SWIDTH 739 0
DWIDTH 10 0
BBX 10 12 0 0
BITMAP
4870002677
4870007771
4870066650
4870177700
4870557100
4873664000
4877773000
4871787100
4870467700
4870066650
4870008772
4870002778
ENDCHAR
STARTCHAR L
ENCODING 76
SWIDTH 604 0
DWIDTH 8 0
BBX 9 12 0 0
BITMAP
4870000000
4870000000
4870000000
4870000000
4870000000
4870000000
4870000000
4870000000
4870000000
4873777720
4873777720
4873777720
ENDCHAR
STARTCHAR M
ENCODING 77
SWIDTH 909 0
DWIDTH 13 0
BBX 12 12 0 0
BITMAP
487000000478
487500004678
487270017578
487564076578
487287467678
487466767478
487076564478
487017720478
487004400478
487000200478
487000000478
487000000478
ENDCHAR
STARTCHAR N
ENCODING 78
SWIDTH 796 0
DWIDTH 11 0
BBX 11 12 0 0
BITMAP
487000006660
487510006660
487270006660
487564006660
487387106660
487377706660
487077646660
487007846660
487003666660
487000736660
487000166660
487000016660
ENDCHAR
STARTCHAR O
ENCODING 79
SWIDTH 894 0
DWIDTH 13 0
BBX 13 12 0 0
BITMAP
00056666610000
00736777463000
06487777676200
16882000666700
67720000077700
67600000047810
66600000047710
66720000077700
16782000666700
06476777676200
00735666364000
00056666610000
ENDCHAR
STARTCHAR P
ENCODING 80
SWIDTH 743 0
DWIDTH 10 0
BBX 10 12 0 0
BITMAP
4873666660
4873666736
4873666777
4870000477
4873666677
4873666764
4873666630
4870000000
4870000000
4870000000
4870000000
4870000000
ENDCHAR
STARTCHAR Q
ENCODING 81
SWIDTH 911 0
DWIDTH 13 0
BBX 13 12 0 0
BITMAP
00056666620000
00736777464000
06487777676200
16882000666700
67720000077700
67600000047810
66600000247800
66720001785700
16782006678300
06476775868810
00735666585710
00056667607000
ENDCHAR
STARTCHAR R
ENCODING 82
SWIDTH 745 0
DWIDTH 10 0
BBX 10 12 0 0
BITMAP
4873666660
4873666736
4873666777
4870000477
4873666677
4873666764
4873666630
4870045620
4870017760
4870007770
4870003775
4870000777
ENDCHAR
STARTCHAR S
ENCODING 83
SWIDTH 660 0
DWIDTH 9 0
BBX 9 12 0 0
BITMAP
0166666100
1736663700
6467776560
6671005420
4876100000
06A8A75000
00268A8810
0000028770
1350007660
5566665670
0736674530
0166666200
ENDCHAR
STARTCHAR T
ENCODING 84
SWIDTH 641 0
DWIDTH 9 0
BBX 9 12 0 0
BITMAP
5666666650
5666666650
5666666650
0005550000
0006660000
0006660000
0006660000
0006660000
0006660000
0006660000
0006660000
0006660000
ENDCHAR
STARTCHAR U
ENCODING 85
SWIDTH 702 0
DWIDTH 10 0
BBX 10 12 0 0
BITMAP
4870002882
4870002882
4870002882
4870002882
4870002882
4870002882
4870002882
4770003772
3665007770
0775665670
0445664630
0046666300
ENDCHAR
STARTCHAR V
ENCODING 86
SWIDTH 758 0
DWIDTH 11 0
BBX 11 12 0 0
BITMAP
777000047720
477200077700
077600077600
077700477200
047720777000
007760776000
007774772000
005773770000
001775660000
000777420000
000677200000
000177500000
ENDCHAR
STARTCHAR W
ENCODING 87
SWIDTH 972 0
DWIDTH 14 0
BBX 14 12 0 0
BITMAP
77700377202773
57700677006770
27730767106760
07760776607760
07773773727730
06775775757700
03773674746600
00776666765600
00777527674300
00677506775000
00477203782000
00077500776000
ENDCHAR
STARTCHAR X
ENCODING 88
SWIDTH 712 0
DWIDTH 10 0
BBX 10 12 0 0
BITMAP
3676006773
0777117770
0277767720
0077737600
0017776100
0006763000
0003777000
0036666400
0077477700
0566446650
0777007770
6763003666
ENDCHAR
STARTCHAR Y
ENCODING 89
SWIDTH 769 0
DWIDTH 11 0
BBX 11 12 0 0
BITMAP
777300056650
177800177700
056660777200
007774666000
002677570000
000666540000
000033300000
000066600000
000066600000
000066600000
000066600000
000066600000
ENDCHAR
STARTCHAR Z
ENCODING 90
SWIDTH 708 0
DWIDTH 10 0
BBX 10 12 0 0
BITMAP
0677775676
0677767770
0677776640
0000177700
0000676200
0002777000
0007771000
0046650000
0077700000
0566677750
1777677750
7775777750
ENDCHAR
STARTCHAR bracketleft
ENCODING 91
SWIDTH 320 0
DWIDTH 4 0
BBX 4 7 0 -1
BITMAP
3545
4845
4810
4810
4810
4845
3545
ENDCHAR
STARTCHAR backslash
ENCODING 92
SWIDTH 298 0
DWIDTH 4 0
BBX 4 6 0 0
BITMAP
6710
2750
0770
0670
0274
0077
ENDCHAR
STARTCHAR bracketright
ENCODING 93
SWIDTH 320 0
DWIDTH 4 0
BBX 4 7 0 -1
BITMAP
2654
2666
0066
0066
0066
2666
2654
ENDCHAR
STARTCHAR asciicircum
ENCODING 94
SWIDTH 309 0
DWIDTH 4 0
BBX 4 3 0 3
BITMAP
0020
0650
1765
ENDCHAR
STARTCHAR underscore
ENCODING 95
SWIDTH 472 0
DWIDTH 7 0
BBX 6 2 0 0
BITMAP
277776
277776
ENDCHAR
STARTCHAR grave
ENCODING 96
SWIDTH 195 0
DWIDTH 3 0
BBX 2 2 0 7
BITMAP
12
07
ENDCHAR
STARTCHAR a
ENCODING 97
SWIDTH 414 0
DWIDTH 6 0
BBX 6 6 0 0
BITMAP
017B00
057820
079760
178870
578A72
797776
ENDCHAR
STARTCHAR b
ENCODING 98
SWIDTH 423 0
DWIDTH 6 0
BBX 6 6 0 0
BITMAP
677770
677754
6777A4
677755
677746
677781
ENDCHAR
STARTCHAR c
ENCODING 99
SWIDTH 446 0
DWIDTH 6 0
BBX 6 6 0 0
BITMAP
046672
366655
661010
661000
366655
047672
ENDCHAR
STARTCHAR d
ENCODING 100
SWIDTH 450 0
DWIDTH 6 0
BBX 6 6 0 0
BITMAP
677760
677746
660076
660076
677746
677760
ENDCHAR
STARTCHAR e
ENCODING 101
SWIDTH 363 0
DWIDTH 5 0
BBX 5 6 0 0
BITMAP
677750
677750
677720
677720
677750
677750
ENDCHAR
STARTCHAR f
ENCODING 102
SWIDTH 365 0
DWIDTH 5 0
BBX 5 6 0 0
BITMAP
677750
677750
677720
677720
660000
660000
ENDCHAR
STARTCHAR g
ENCODING 103
SWIDTH 483 0
DWIDTH 7 0
BBX 7 6 0 0
BITMAP
04667200
36665600
66126620
66128830
36665710
04767300
ENDCHAR
STARTCHAR h
ENCODING 104
SWIDTH 428 0
DWIDTH 6 0
BBX 6 6 0 0
BITMAP
660066
660066
677776
677776
660066
660066
ENDCHAR
STARTCHAR i
ENCODING 105
SWIDTH 176 0
DWIDTH 2 0
BBX 2 6 0 0
BITMAP
66
66
66
66
66
66
ENDCHAR
STARTCHAR j
ENCODING 106
SWIDTH 390 0
DWIDTH 5 0
BBX 5 6 0 0
BITMAP
000660
000660
000660
440660
547570
076720
ENDCHAR
STARTCHAR k
ENCODING 107
SWIDTH 381 0
DWIDTH 5 0
BBX 5 6 0 0
BITMAP
660770
665730
668700
676500
667720
661780
ENDCHAR
STARTCHAR l
ENCODING 108
SWIDTH 330 0
DWIDTH 5 0
BBX 5 6 0 0
BITMAP
660000
660000
660000
660000
677730
677730
ENDCHAR
STARTCHAR m
ENCODING 109
SWIDTH 501 0
DWIDTH 7 0
BBX 7 6 0 0
BITMAP
67404860
67737760
677A7760
66364660
66020660
66000660
ENDCHAR
STARTCHAR n
ENCODING 110
SWIDTH 444 0
DWIDTH 6 0
BBX 6 6 0 0
BITMAP
674066
678166
677766
665696
660776
6602A6
ENDCHAR
STARTCHAR o
ENCODING 111
SWIDTH 494 0
DWIDTH 7 0
BBX 7 6 0 0
BITMAP
04667300
36665620
66101660
66101660
36665620
04767400
ENDCHAR
STARTCHAR p
ENCODING 112
SWIDTH 412 0
DWIDTH 6 0
BBX 6 6 0 0
BITMAP
676670
676654
676663
676660
660000
660000
ENDCHAR
STARTCHAR q
ENCODING 113
SWIDTH 494 0
DWIDTH 7 0
BBX 7 6 0 0
BITMAP
04667400
36665620
66101660
66114750
36666840
04769710
ENDCHAR
STARTCHAR r
ENCODING 114
SWIDTH 412 0
DWIDTH 6 0
BBX 6 6 0 0
BITMAP
676670
676654
676663
677880
660770
660671
ENDCHAR
STARTCHAR s
ENCODING 115
SWIDTH 379 0
DWIDTH 5 0
BBX 5 6 0 0
BITMAP
176720
646560
397300
015960
646570
176640
ENDCHAR
STARTCHAR t
ENCODING 116
SWIDTH 349 0
DWIDTH 5 0
BBX 5 6 0 0
BITMAP
677750
689750
048200
048200
048200
048200
ENDCHAR
STARTCHAR u
ENCODING 117
SWIDTH 400 0
DWIDTH 6 0
BBX 6 6 0 0
BITMAP
660471
660471
660471
660571
447670
066730
ENDCHAR
STARTCHAR v
ENCODING 118
SWIDTH 394 0
DWIDTH 6 0
BBX 6 6 0 0
BITMAP
770373
671670
175770
078740
067700
027900
ENDCHAR
STARTCHAR w
ENCODING 119
SWIDTH 521 0
DWIDTH 7 0
BBX 8 6 0 0
BITMAP
77176571
67477770
47976770
07AB7740
07777A10
06827A00
ENDCHAR
STARTCHAR x
ENCODING 120
SWIDTH 369 0
DWIDTH 5 0
BBX 5 6 0 0
BITMAP
672770
17A720
067700
068700
17A730
771770
ENDCHAR
STARTCHAR y
ENCODING 121
SWIDTH 422 0
DWIDTH 6 0
BBX 6 6 0 0
BITMAP
772366
178880
046A30
004400
006600
006600
ENDCHAR
STARTCHAR z
ENCODING 122
SWIDTH 409 0
DWIDTH 6 0
BBX 6 6 0 0
BITMAP
377771
244881
007740
077300
489771
377771
ENDCHAR
STARTCHAR braceleft
ENCODING 123
SWIDTH 443 0
DWIDTH 6 0
BBX 6 7 0 -1
BITMAP
004453
006653
266600
266600
006600
006653
004453
ENDCHAR
STARTCHAR bar
ENCODING 124
SWIDTH 196 0
DWIDTH 3 0
BBX 3 7 0 0
BITMAP
2400
4810
4810
4810
4810
4810
4810
ENDCHAR
STARTCHAR braceright
ENCODING 125
SWIDTH 506 0
DWIDTH 7 0
BBX 6 7 1 -1
BITMAP
354400
356600
006662
006662
006600
356600
354400
ENDCHAR
STARTCHAR asciitilde
ENCODING 126
SWIDTH 450 0
DWIDTH 6 0
BBX 6 3 0 2
BITMAP
376203
487216
300675
ENDCHAR
STARTCHAR uni00A0
ENCODING 160
SWIDTH 280 0
DWIDTH 4 0
BBX 1 1 0 0
BITMAP
00
ENDCHAR
STARTCHAR exclamdown
ENCODING 161
SWIDTH 196 0
DWIDTH 3 0
BBX 3 6 0 -2
BITMAP
4810
2300
4810
4810
4810
4810
ENDCHAR
STARTCHAR cent
ENCODING 162
SWIDTH 305 0
DWIDTH 4 0
BBX 4 7 0 -1
BITMAP
0560
1774
7776
7700
7776
1774
0560
ENDCHAR
STARTCHAR sterling
ENCODING 163
SWIDTH 408 0
DWIDTH 6 0
BBX 6 6 0 0
BITMAP
487700
434320
777700
777700
777772
777772
ENDCHAR
STARTCHAR currency
ENCODING 164
SWIDTH 401 0
DWIDTH 6 0
BBX 6 6 0 0
BITMAP
050130
447651
065710
065710
437651
050240
ENDCHAR
STARTCHAR yen
ENCODING 165
SWIDTH 423 0
DWIDTH 6 0
BBX 6 6 0 0
BITMAP
772366
178880
046A30
004400
156651
156651
ENDCHAR
STARTCHAR brokenbar
ENCODING 166
SWIDTH 196 0
DWIDTH 3 0
BBX 3 7 0 0
BITMAP
3500
4810
4810
0000
3500
4810
4810
ENDCHAR
STARTCHAR section
ENCODING 167
SWIDTH 322 0
DWIDTH 5 0
BBX 5 6 0 0
BITMAP
3DC700
648400
475810
646900
177700
2AD900
ENDCHAR
STARTCHAR dieresis
ENCODING 168
SWIDTH 287 0
DWIDTH 4 0
BBX 4 1 0 7
BITMAP
2552
ENDCHAR
STARTCHAR copyright
ENCODING 169
SWIDTH 493 0
DWIDTH 7 0
BBX 7 7 0 0
BITMAP
01666100
18001800
61574250
70700070
61564250
18001800
01666100
ENDCHAR
STARTCHAR ordfeminine
ENCODING 170
SWIDTH 331 0
DWIDTH 5 0
BBX 4 3 0 3
BITMAP
0593
08B5
2997
ENDCHAR
STARTCHAR guillemotleft
ENCODING 171
SWIDTH 298 0
DWIDTH 4 0
BBX 4 4 0 1
BITMAP
0202
2654
3553
0403
ENDCHAR
STARTCHAR logicalnot
ENCODING 172
SWIDTH 420 0
DWIDTH 6 0
BBX 6 4 0 0
BITMAP
377772
377772
000184
000011
ENDCHAR
STARTCHAR uni00AD
ENCODING 173
SWIDTH 326 0
DWIDTH 5 0
BBX 4 2 0 2
BITMAP
2776
2776
ENDCHAR
STARTCHAR registered
ENCODING 174
SWIDTH 493 0
DWIDTH 7 0
BBX 7 7 0 0
BITMAP
01666100
18001800
61565250
70676070
61616250
18001800
01666100
ENDCHAR
STARTCHAR macron
ENCODING 175
SWIDTH 331 0
DWIDTH 5 0
BBX 4 1 0 7
BITMAP
2776
ENDCHAR
STARTCHAR degree
ENCODING 176
SWIDTH 298 0
DWIDTH 4 0
BBX 4 4 0 3
BITMAP
0671
3655
3655
0670
ENDCHAR
STARTCHAR plusminus
ENCODING 177
SWIDTH 418 0
DWIDTH 6 0
BBX 6 6 0 0
BITMAP
006600
256661
256661
006600
377772
377772
ENDCHAR
STARTCHAR uni00B2
ENCODING 178
SWIDTH 233 0
DWIDTH 3 0
BBX 3 3 0 3
BITMAP
2940
0530
2840
ENDCHAR
STARTCHAR uni00B3
ENCODING 179
SWIDTH 228 0
DWIDTH 3 0
BBX 3 3 0 3
BITMAP
2830
0230
2940
ENDCHAR
STARTCHAR acute
ENCODING 180
SWIDTH 195 0
DWIDTH 3 0
BBX 2 2 0 7
BITMAP
04
16
ENDCHAR
STARTCHAR uni00B5
ENCODING 181
SWIDTH 506 0
DWIDTH 7 0
BBX 7 8 0 -2
BITMAP
48127300
48127300
48127300
48137300
48566510
48576750
48100000
24000000
ENDCHAR
STARTCHAR paragraph
ENCODING 182
SWIDTH 435 0
DWIDTH 6 0
BBX 6 6 0 0
BITMAP
277773
657773
654745
174846
001846
001846
ENDCHAR
STARTCHAR periodcentered
ENCODING 183
SWIDTH 176 0
DWIDTH 2 0
BBX 2 2 0 2
BITMAP
66
11
ENDCHAR
STARTCHAR cedilla
ENCODING 184
SWIDTH 261 0
DWIDTH 4 0
BBX 3 4 0 -3
BITMAP
0200
0A60
0070
1750
ENDCHAR
STARTCHAR uni00B9
ENCODING 185
SWIDTH 218 0
DWIDTH 3 0
BBX 3 3 0 3
BITMAP
3740
0440
0440
ENDCHAR
STARTCHAR ordmasculine
ENCODING 186
SWIDTH 335 0
DWIDTH 5 0
BBX 4 3 0 3
BITMAP
19B6
471A
19B6
ENDCHAR
STARTCHAR guillemotright
ENCODING 187
SWIDTH 298 0
DWIDTH 4 0
BBX 4 4 0 1
BITMAP
2020
3653
2745
2130
ENDCHAR
STARTCHAR onequarter
ENCODING 188
SWIDTH 429 0
DWIDTH 6 0
BBX 6 7 0 -1
BITMAP
371171
371550
072810
005541
018381
055265
021012
ENDCHAR
STARTCHAR onehalf
ENCODING 189
SWIDTH 437 0
DWIDTH 6 0
BBX 6 6 0 0
BITMAP
581270
071730
054643
007465
046174
051143
ENDCHAR
STARTCHAR threequarters
ENCODING 190
SWIDTH 409 0
DWIDTH 6 0
BBX 6 7 0 -1
BITMAP
151240
051640
364700
126450
037551
063354
030011
ENDCHAR
STARTCHAR questiondown
ENCODING 191
SWIDTH 346 0
DWIDTH 5 0
BBX 5 6 0 -1
BITMAP
036100
025100
077100
366000
378610
067500
ENDCHAR
STARTCHAR Agrave
ENCODING 192
SWIDTH 798 0
DWIDTH 11 0
BBX 11 16 0 0
BITMAP
000771000000
000177000000
000067200000
000000000000
000067700000
000277550000
000677470000
000677771000
003774775000
006770777000
007770577100
037767577500
067757677700
077777777710
377300017750
777000007770
ENDCHAR
STARTCHAR Aacute
ENCODING 193
SWIDTH 798 0
DWIDTH 11 0
BBX 11 16 0 0
BITMAP
000000771000
000003760000
000007700000
000000000000
000067700000
000277550000
000677470000
000677771000
003774775000
006770777000
007770577100
037767577500
067757677700
077777777710
377300017750
777000007770
ENDCHAR
STARTCHAR Acircumflex
ENCODING 194
SWIDTH 798 0
DWIDTH 11 0
BBX 11 16 0 0
BITMAP
000088300000
000665640000
003660871000
000000000000
000067700000
000277550000
000677470000
000677771000
003774775000
006770777000
007770577100
037767577500
067757677700
077777777710
377300017750
777000007770
ENDCHAR
STARTCHAR Atilde
ENCODING 195
SWIDTH 798 0
DWIDTH 11 0
BBX 11 14 0 0
BITMAP
000575032000
000503770000
000067700000
000277550000
000677470000
000677771000
003774775000
006770777000
007770577100
037767577500
067757677700
077777777710
377300017750
777000007770
ENDCHAR
STARTCHAR Adieresis
ENCODING 196
SWIDTH 798 0
DWIDTH 11 0
BBX 11 15 0 0
BITMAP
003760474000
007061707000
002760474000
000067700000
000277550000
000677470000
000677771000
003774775000
006770777000
007770577100
037767577500
067757677700
077777777710
377300017750
777000007770
ENDCHAR
STARTCHAR Aring
ENCODING 197
SWIDTH 798 0
DWIDTH 11 0
BBX 11 16 0 0
BITMAP
000037500000
000070700000
000070600000
000037500000
000067700000
000277550000
000677470000
000677771000
003774775000
006770777000
007770577100
037767577500
067757677700
077777777710
377300017750
777000007770
ENDCHAR
STARTCHAR AE
ENCODING 198
SWIDTH 1078 0
DWIDTH 15 0
BBX 15 12 0 0
BITMAP
0000007767777740
0000046777777740
0000256666777740
0000756660000000
0001676660000000
0007766764777600
0016774774777600
0067622775777600
0177764774000000
0677574776777740
1777674666677740
6772000666677740
ENDCHAR
STARTCHAR Ccedilla
ENCODING 199
SWIDTH 776 0
DWIDTH 11 0
BBX 11 16 0 -4
BITMAP
000566666000
007367774810
064877776520
168820006000
677200000000
676000000000
666000000000
667200000000
167820005000
064767776520
007356663810
000566666000
000005000000
000059700000
000010520000
000056600000
ENDCHAR
STARTCHAR Egrave
ENCODING 200
SWIDTH 677 0
DWIDTH 9 0
BBX 9 16 0 0
BITMAP
0000770000
0000563000
0000077000
0000000000
4873777770
4873777770
4873777770
4870000000
4870000000
4873777720
4873777720
4873777720
4870000000
4873777770
4873777770
4873777770
ENDCHAR
STARTCHAR Eacute
ENCODING 201
SWIDTH 677 0
DWIDTH 9 0
BBX 9 16 0 0
BITMAP
0000077000
0000673000
0001770000
0000000000
4873777770
4873777770
4873777770
4870000000
4870000000
4873777720
4873777720
4873777720
4870000000
4873777770
4873777770
4873777770
ENDCHAR
STARTCHAR Ecircumflex
ENCODING 202
SWIDTH 677 0
DWIDTH 9 0
BBX 9 16 0 0
BITMAP
0001783000
0007756300
0056508700
0000000000
4873777770
4873777770
4873777770
4870000000
4870000000
4873777720
4873777720
4873777720
4870000000
4873777770
4873777770
4873777770
ENDCHAR
STARTCHAR Edieresis
ENCODING 203
SWIDTH 677 0
DWIDTH 9 0
BBX 9 15 0 0
BITMAP
0047506730
0070707070
0047505730
4873777770
4873777770
4873777770
4870000000
4870000000
4873777720
4873777720
4873777720
4870000000
4873777770
4873777770
4873777770
ENDCHAR
STARTCHAR Igrave
ENCODING 204
SWIDTH 262 0
DWIDTH 4 0
BBX 4 16 -1 0
BITMAP
6720
0770
0564
0000
0487
0487
0487
0487
0487
0487
0487
0487
0487
0487
0487
0487
ENDCHAR
STARTCHAR Iacute
ENCODING 205
SWIDTH 262 0
DWIDTH 4 0
BBX 5 16 0 0
BITMAP
006710
027600
077100
000000
487000
487000
487000
487000
487000
487000
487000
487000
487000
487000
487000
487000
ENDCHAR
STARTCHAR Icircumflex
ENCODING 206
SWIDTH 262 0
DWIDTH 4 0
BBX 7 16 -2 0
BITMAP
00775000
04666700
17806640
00000000
00487000
00487000
00487000
00487000
00487000
00487000
00487000
00487000
00487000
00487000
00487000
00487000
ENDCHAR
STARTCHAR Idieresis
ENCODING 207
SWIDTH 262 0
DWIDTH 4 0
BBX 8 15 -2 0
BITMAP
17702760
51347061
17702760
00487000
00487000
00487000
00487000
00487000
00487000
00487000
00487000
00487000
00487000
00487000
00487000
ENDCHAR
STARTCHAR Eth
ENCODING 208
SWIDTH 856 0
DWIDTH 12 0
BBX 12 12 0 0
BITMAP
066657775000
066657764800
066657767470
066600028761
011100002776
677775000777
677775000777
677775002776
066600028861
066657767460
066657764700
066657775000
ENDCHAR
STARTCHAR Ntilde
ENCODING 209
SWIDTH 796 0
DWIDTH 11 0
BBX 11 14 0 0
BITMAP
000675032000
000404760000
487000006660
487510006660
487270006660
487564006660
487387106660
487377706660
487077646660
487007846660
487003666660
487000736660
487000166660
487000016660
ENDCHAR
STARTCHAR Ograve
ENCODING 210
SWIDTH 894 0
DWIDTH 13 0
BBX 13 16 0 0
BITMAP
00007700000000
00005640000000
00000770000000
00000000000000
00056666610000
00736777463000
06487777676200
16882000666700
67720000077700
67600000047810
66600000047710
66720000077700
16782000666700
06476777676200
00735666364000
00056666610000
ENDCHAR
STARTCHAR Oacute
ENCODING 211
SWIDTH 894 0
DWIDTH 13 0
BBX 13 16 0 0
BITMAP
00000046400000
00000077000000
00000673000000
00000000000000
00056666610000
00736777463000
06487777676200
16882000666700
67720000077700
67600000047810
66600000047710
66720000077700
16782000666700
06476777676200
00735666364000
00056666610000
ENDCHAR
STARTCHAR Ocircumflex
ENCODING 212
SWIDTH 894 0
DWIDTH 13 0
BBX 13 16 0 0
BITMAP
00002773000000
00008847100000
00077327700000
00000000000000
00056666610000
00736777463000
06487777676200
16882000666700
67720000077700
67600000047810
66600000047710
66720000077700
16782000666700
06476777676200
00735666364000
00056666610000
ENDCHAR
STARTCHAR Otilde
ENCODING 213
SWIDTH 894 0
DWIDTH 13 0
BBX 13 14 0 0
BITMAP
00017720500000
00031067400000
00056666610000
00736777463000
06487777676200
16882000666700
67720000077700
67600000047810
66600000047710
66720000077700
16782000666700
06476777676200
00735666364000
00056666610000
ENDCHAR
STARTCHAR Odieresis
ENCODING 214
SWIDTH 894 0
DWIDTH 13 0
BBX 13 15 0 0
BITMAP
00057307720000
00070724060000
00057307720000
00056666610000
00736777463000
06487777676200
16882000666700
67720000077700
67600000047810
66600000047710
66720000077700
16782000666700
06476777676200
00735666364000
00056666610000
ENDCHAR
STARTCHAR multiply
ENCODING 215
SWIDTH 370 0
DWIDTH 5 0
BBX 5 5 0 0
BITMAP
051400
257630
076600
265640
010100
ENDCHAR
STARTCHAR Oslash
ENCODING 216
SWIDTH 894 0
DWIDTH 13 0
BBX 13 12 0 0
BITMAP
00056668571000
00736776756200
06487776578000
26782017773500
66720075666700
67604547748800
66728684037710
57488620077700
06774500666700
04758577675200
04774666354000
00249766620000
ENDCHAR
STARTCHAR Ugrave
ENCODING 217
SWIDTH 702 0
DWIDTH 10 0
BBX 10 16 0 0
BITMAP
0066300000
0007700000
0004640000
0000000000
4870002882
4870002882
4870002882
4870002882
4870002882
4870002882
4870002882
4770003772
3665007770
0775665670
0445664630
0046666300
ENDCHAR
STARTCHAR Uacute
ENCODING 218
SWIDTH 702 0
DWIDTH 10 0
BBX 10 16 0 0
BITMAP
0000066300
0000177000
0000771000
0000000000
4870002882
4870002882
4870002882
4870002882
4870002882
4870002882
4870002882
4770003772
3665007770
0775665670
0445664630
0046666300
ENDCHAR
STARTCHAR Ucircumflex
ENCODING 219
SWIDTH 702 0
DWIDTH 10 0
BBX 10 16 0 0
BITMAP
0006651000
0036757000
0178056500
0000000000
4870002882
4870002882
4870002882
4870002882
4870002882
4870002882
4870002882
4770003772
3665007770
0775665670
0445664630
0046666300
ENDCHAR
STARTCHAR Udieresis
ENCODING 220
SWIDTH 702 0
DWIDTH 10 0
BBX 10 15 0 0
BITMAP
0077127700
0421570520
0077127600
4870002882
4870002882
4870002882
4870002882
4870002882
4870002882
4870002882
4770003772
3665007770
0775665670
0445664630
0046666300
ENDCHAR
STARTCHAR Yacute
ENCODING 221
SWIDTH 769 0
DWIDTH 11 0
BBX 11 16 0 0
BITMAP
000001770000
000007710000
000037600000
000000000000
777300056650
177800177700
056660777200
007774666000
002677570000
000666540000
000033300000
000066600000
000066600000
000066600000
000066600000
000066600000
ENDCHAR
STARTCHAR Thorn
ENCODING 222
SWIDTH 743 0
DWIDTH 10 0
BBX 10 12 0 0
BITMAP
4870000000
4870000000
4873777730
4873777763
4873777677
4870000577
4870000577
4873777677
4873777763
4873777730
4870000000
4870000000
ENDCHAR
STARTCHAR germandbls
ENCODING 223
SWIDTH 424 0
DWIDTH 6 0
BBX 6 6 0 0
BITMAP
187770
647762
6617A2
661755
663746
663781
ENDCHAR
STARTCHAR agrave
ENCODING 224
SWIDTH 414 0
DWIDTH 6 0
BBX 6 9 0 0
BITMAP
004000
006100
000000
017B00
057820
079760
178870
578A72
797776
ENDCHAR
STARTCHAR aacute
ENCODING 225
SWIDTH 414 0
DWIDTH 6 0
BBX 6 9 0 0
BITMAP
000310
000700
000000
017B00
057820
079760
178870
578A72
797776
ENDCHAR
STARTCHAR acircumflex
ENCODING 226
SWIDTH 414 0
DWIDTH 6 0
BBX 6 9 0 0
BITMAP
004000
035700
000000
017B00
057820
079760
178870
578A72
797776
ENDCHAR
STARTCHAR atilde
ENCODING 227
SWIDTH 414 0
DWIDTH 6 0
BBX 6 9 0 0
BITMAP
037040
041720
000000
017B00
057820
079760
178870
578A72
797776
ENDCHAR
STARTCHAR adieresis
ENCODING 228
SWIDTH 414 0
DWIDTH 6 0
BBX 6 8 0 0
BITMAP
035610
000000
017B00
057820
079760
178870
578A72
797776
ENDCHAR
STARTCHAR aring
ENCODING 229
SWIDTH 414 0
DWIDTH 6 0
BBX 6 8 0 0
BITMAP
005400
004400
017B00
057820
079760
178870
578A72
797776
ENDCHAR
STARTCHAR ae
ENCODING 230
SWIDTH 593 0
DWIDTH 8 0
BBX 8 6 0 0
BITMAP
0026C777
00788777
026B7774
07647774
26887877
76017977
ENDCHAR
STARTCHAR ccedilla
ENCODING 231
SWIDTH 446 0
DWIDTH 6 0
BBX 6 9 0 -3
BITMAP
046672
366655
661010
661000
366655
047872
006820
000160
005710
ENDCHAR
STARTCHAR egrave
ENCODING 232
SWIDTH 363 0
DWIDTH 5 0
BBX 5 9 0 0
BITMAP
003000
007000
000000
677750
677750
677720
677720
677750
677750
ENDCHAR
STARTCHAR eacute
ENCODING 233
SWIDTH 363 0
DWIDTH 5 0
BBX 5 9 0 0
BITMAP
000300
000700
000000
677750
677750
677720
677720
677750
677750
ENDCHAR
STARTCHAR ecircumflex
ENCODING 234
SWIDTH 363 0
DWIDTH 5 0
BBX 5 9 0 0
BITMAP
004000
035700
000000
677750
677750
677720
677720
677750
677750
ENDCHAR
STARTCHAR edieresis
ENCODING 235
SWIDTH 363 0
DWIDTH 5 0
BBX 5 8 0 0
BITMAP
034610
000000
677750
677750
677720
677720
677750
677750
ENDCHAR
STARTCHAR igrave
ENCODING 236
SWIDTH 176 0
DWIDTH 2 0
BBX 2 9 0 0
BITMAP
40
43
00
66
66
66
66
66
66
ENDCHAR
STARTCHAR iacute
ENCODING 237
SWIDTH 176 0
DWIDTH 2 0
BBX 3 9 0 0
BITMAP
0120
0700
0000
6600
6600
6600
6600
6600
6600
ENDCHAR
STARTCHAR icircumflex
ENCODING 238
SWIDTH 176 0
DWIDTH 2 0
BBX 4 9 -1 0
BITMAP
0320
1752
0000
0660
0660
0660
0660
0660
0660
ENDCHAR
STARTCHAR idieresis
ENCODING 239
SWIDTH 176 0
DWIDTH 2 0
BBX 3 8 0 0
BITMAP
7340
0000
6600
6600
6600
6600
6600
6600
ENDCHAR
STARTCHAR eth
ENCODING 240
SWIDTH 455 0
DWIDTH 6 0
BBX 6 6 0 0
BITMAP
677770
677746
110076
785076
677746
677770
ENDCHAR
STARTCHAR ntilde
ENCODING 241
SWIDTH 444 0
DWIDTH 6 0
BBX 6 9 0 0
BITMAP
028140
040740
000000
674066
678166
677766
665696
660776
6602A6
ENDCHAR
STARTCHAR ograve
ENCODING 242
SWIDTH 494 0
DWIDTH 7 0
BBX 7 9 0 0
BITMAP
00300000
00160000
00000000
04667300
36665620
66101660
66101660
36665620
04767400
ENDCHAR
STARTCHAR oacute
ENCODING 243
SWIDTH 494 0
DWIDTH 7 0
BBX 7 9 0 0
BITMAP
00013000
00061000
00000000
04667300
36665620
66101660
66101660
36665620
04767400
ENDCHAR
STARTCHAR ocircumflex
ENCODING 244
SWIDTH 494 0
DWIDTH 7 0
BBX 7 9 0 0
BITMAP
00130000
00735000
00000000
04667300
36665620
66101660
66101660
36665620
04767400
ENDCHAR
STARTCHAR otilde
ENCODING 245
SWIDTH 494 0
DWIDTH 7 0
BBX 7 9 0 0
BITMAP
00744000
01346000
00000000
04667300
36665620
66101660
66101660
36665620
04767400
ENDCHAR
STARTCHAR odieresis
ENCODING 246
SWIDTH 494 0
DWIDTH 7 0
BBX 7 8 0 0
BITMAP
00716000
00000000
04667300
36665620
66101660
66101660
36665620
04767400
ENDCHAR
STARTCHAR divide
ENCODING 247
SWIDTH 418 0
DWIDTH 6 0
BBX 6 5 0 0
BITMAP
004400
377772
266662
004300
005500
ENDCHAR
STARTCHAR oslash
ENCODING 248
SWIDTH 494 0
DWIDTH 7 0
BBX 7 6 0 0
BITMAP
05665700
35667300
66163650
65441660
14665620
06667400
ENDCHAR
STARTCHAR ugrave
ENCODING 249
SWIDTH 400 0
DWIDTH 6 0
BBX 6 9 0 0
BITMAP
013000
007000
000000
660471
660471
660471
660571
447670
066730
ENDCHAR
STARTCHAR uacute
ENCODING 250
SWIDTH 400 0
DWIDTH 6 0
BBX 6 9 0 0
BITMAP
000400
003500
000000
660471
660471
660471
660571
447670
066730
ENDCHAR
STARTCHAR ucircumflex
ENCODING 251
SWIDTH 400 0
DWIDTH 6 0
BBX 6 9 0 0
BITMAP
004000
053700
000000
660471
660471
660471
660571
447670
066730
ENDCHAR
STARTCHAR udieresis
ENCODING 252
SWIDTH 400 0
DWIDTH 6 0
BBX 6 8 0 0
BITMAP
043700
000000
660471
660471
660471
660571
447670
066730
ENDCHAR
STARTCHAR yacute
ENCODING 253
SWIDTH 422 0
DWIDTH 6 0
BBX 6 9 0 0
BITMAP
000400
001600
000000
772366
178880
046A30
004400
006600
006600
ENDCHAR
STARTCHAR thorn
ENCODING 254
SWIDTH 412 0
DWIDTH 6 0
BBX 6 6 0 0
BITMAP
660000
677760
677764
677764
677760
660000
ENDCHAR
STARTCHAR ydieresis
ENCODING 255
SWIDTH 422 0
DWIDTH 6 0
BBX 6 8 0 0
BITMAP
035610
000000
772366
178880
046A30
004400
006600
006600
ENDCHAR
STARTCHAR Edotaccent
ENCODING 278
SWIDTH 677 0
DWIDTH 9 0
BBX 9 14 0 0
BITMAP
00001D0000
0000010000
4873777770
4873777770
4873777770
4870000000
4870000000
4873777720
4873777720
4873777720
4870000000
4873777770
4873777770
4873777770
ENDCHAR
STARTCHAR edotaccent
ENCODING 279
SWIDTH 363 0
DWIDTH 5 0
BBX 5 8 0 0
BITMAP
008600
001000
677750
677750
677720
677720
677750
677750
ENDCHAR
STARTCHAR dotlessi
ENCODING 305
SWIDTH 176 0
DWIDTH 2 0
BBX 2 6 0 0
BITMAP
66
66
66
66
66
66
ENDCHAR
STARTCHAR OE
ENCODING 338
SWIDTH 1221 0
DWIDTH 17 0
BBX 17 12 0 0
BITMAP
000577750006777740
008467750006777740
074767750006777740
267820000000000000
677200000000000000
677000000006777600
677000000006777600
677200000006777600
267820000000000000
074767750006777740
008467750006777740
000577750006777740
ENDCHAR
STARTCHAR oe
ENCODING 339
SWIDTH 637 0
DWIDTH 9 0
BBX 9 6 0 0
BITMAP
0577327740
3567327740
6610027710
6610027710
3667327740
0577327740
ENDCHAR
STARTCHAR Wcircumflex
ENCODING 372
SWIDTH 972 0
DWIDTH 14 0
BBX 14 16 0 0
BITMAP
00000775000000
00004666600000
00017806630000
00000000000000
77700377202773
57700677006770
27730767106760
07760776607760
07773773727730
06775775757700
03773674746600
00776666765600
00777527674300
00677506775000
00477203782000
00077500776000
ENDCHAR
STARTCHAR wcircumflex
ENCODING 373
SWIDTH 521 0
DWIDTH 7 0
BBX 8 9 0 0
BITMAP
00040000
00627000
00000000
77176571
67477770
47976770
07AB7740
07777A10
06827A00
ENDCHAR
STARTCHAR Ycircumflex
ENCODING 374
SWIDTH 769 0
DWIDTH 11 0
BBX 11 16 0 0
BITMAP
000178300000
000875720000
005641780000
000000000000
777300056650
177800177700
056660777200
007774666000
002677570000
000666540000
000033300000
000066600000
000066600000
000066600000
000066600000
000066600000
ENDCHAR
STARTCHAR ycircumflex
ENCODING 375
SWIDTH 422 0
DWIDTH 6 0
BBX 6 9 0 0
BITMAP
004000
035700
000000
772366
178880
046A30
004400
006600
006600
ENDCHAR
STARTCHAR Ydieresis
ENCODING 376
SWIDTH 769 0
DWIDTH 11 0
BBX 11 15 0 0
BITMAP
004740673000
007070607000
004740672000
777300056650
177800177700
056660777200
007774666000
002677570000
000666540000
000033300000
000066600000
000066600000
000066600000
000066600000
000066600000
ENDCHAR
STARTCHAR circumflex
ENCODING 710
SWIDTH 298 0
DWIDTH 4 0
BBX 4 2 0 7
BITMAP
0310
1752
ENDCHAR
STARTCHAR dotaccent
ENCODING 729
SWIDTH 212 0
DWIDTH 3 0
BBX 2 2 0 6
BITMAP
1D
01
ENDCHAR
STARTCHAR ring
ENCODING 730
SWIDTH 212 0
DWIDTH 3 0
BBX 3 2 0 6
BITMAP
1610
1610
ENDCHAR
STARTCHAR tilde
ENCODING 732
SWIDTH 329 0
DWIDTH 5 0
BBX 4 2 0 7
BITMAP
0834
2255
ENDCHAR
STARTCHAR gravecomb
ENCODING 768
SWIDTH 0 0
DWIDTH 0 0
BBX 2 2 0 7
BITMAP
12
07
ENDCHAR
STARTCHAR acutecomb
ENCODING 769
SWIDTH 0 0
DWIDTH 0 0
BBX 2 2 0 7
BITMAP
04
16
ENDCHAR
STARTCHAR uni0302
ENCODING 770
SWIDTH 0 0
DWIDTH 0 0
BBX 4 2 0 7
BITMAP
0310
1752
ENDCHAR
STARTCHAR tildecomb
ENCODING 771
SWIDTH 0 0
DWIDTH 0 0
BBX 4 2 0 7
BITMAP
0834
2255
ENDCHAR
STARTCHAR uni0307
ENCODING 775
SWIDTH 0 0
DWIDTH 0 0
BBX 2 2 0 6
BITMAP
1D
01
ENDCHAR
STARTCHAR uni0308
ENCODING 776
SWIDTH 0 0
DWIDTH 0 0
BBX 4 1 0 7
BITMAP
2552
ENDCHAR
STARTCHAR uni030A
ENCODING 778
SWIDTH 0 0
DWIDTH 0 0
BBX 3 2 0 6
BITMAP
1610
1610
ENDCHAR
STARTCHAR uni0327
ENCODING 807
SWIDTH 0 0
DWIDTH 0 0
BBX 3 4 0 -3
BITMAP
0200
0A60
0070
1750
ENDCHAR
STARTCHAR Wgrave
ENCODING 7808
SWIDTH 972 0
DWIDTH 14 0
BBX 14 16 0 0
BITMAP
00000771000000
00000177000000
00000067200000
00000000000000
77700377202773
57700677006770
27730767106760
07760776607760
07773773727730
06775775757700
03773674746600
00776666765600
00777527674300
00677506775000
00477203782000
00077500776000
ENDCHAR
STARTCHAR wgrave
ENCODING 7809
SWIDTH 521 0
DWIDTH 7 0
BBX 8 9 0 0
BITMAP
00040000
00061000
00000000
77176571
67477770
47976770
07AB7740
07777A10
06827A00
ENDCHAR
STARTCHAR Wacute
ENCODING 7810
SWIDTH 972 0
DWIDTH 14 0
BBX 14 16 0 0
BITMAP
00000067200000
00000177000000
00000771000000
00000000000000
77700377202773
57700677006770
27730767106760
07760776607760
07773773727730
06775775757700
03773674746600
00776666765600
00777527674300
00677506775000
00477203782000
00077500776000
ENDCHAR
STARTCHAR wacute
ENCODING 7811
SWIDTH 521 0
DWIDTH 7 0
BBX 8 9 0 0
BITMAP
00021000
00070000
00000000
77176571
67477770
47976770
07AB7740
07777A10
06827A00
ENDCHAR
STARTCHAR Wdieresis
ENCODING 7812
SWIDTH 972 0
DWIDTH 14 0
BBX 14 15 0 0
BITMAP
00017703760000
00061347060000
00017703760000
77700377202773
57700677006770
27730767106760
07760776607760
07773773727730
06775775757700
03773674746600
00776666765600
00777527674300
00677506775000
00477203782000
00077500776000
ENDCHAR
STARTCHAR wdieresis
ENCODING 7813
SWIDTH 521 0
DWIDTH 7 0
BBX 8 8 0 0
BITMAP
00627000
00000000
77176571
67477770
47976770
07AB7740
07777A10
06827A00
ENDCHAR
STARTCHAR uni1E9E
ENCODING 7838
SWIDTH 784 0
DWIDTH 11 0
BBX 11 12 0 0
BITMAP
487377777200
487377777200
487377777200
487000777000
487004675000
487007774400
487057757710
487011127750
487000007760
487057776550
487057774700
487057777200
ENDCHAR
STARTCHAR Ygrave
ENCODING 7922
SWIDTH 769 0
DWIDTH 11 0
BBX 11 16 0 0
BITMAP
000177000000
000066300000
000007700000
000000000000
777300056650
177800177700
056660777200
007774666000
002677570000
000666540000
000033300000
000066600000
000066600000
000066600000
000066600000
000066600000
ENDCHAR
STARTCHAR ygrave
ENCODING 7923
SWIDTH 422 0
DWIDTH 6 0
BBX 6 9 0 0
BITMAP
004000
002500
000000
772366
178880
046A30
004400
006600
006600
ENDCHAR
STARTCHAR endash
ENCODING 8211
SWIDTH 507 0
DWIDTH 7 0
BBX 7 2 0 2
BITMAP
27777730
27777730
ENDCHAR
STARTCHAR emdash
ENCODING 8212
SWIDTH 552 0
DWIDTH 8 0
BBX 7 2 0 2
BITMAP
27777770
27777770
ENDCHAR
STARTCHAR quoteleft
ENCODING 8216
SWIDTH 146 0
DWIDTH 2 0
BBX 2 2 0 4
BITMAP
61
66
ENDCHAR
STARTCHAR quoteright
ENCODING 8217
SWIDTH 146 0
DWIDTH 2 0
BBX 2 2 0 4
BITMAP
66
06
ENDCHAR
STARTCHAR quotesinglbase
ENCODING 8218
SWIDTH 146 0
DWIDTH 2 0
BBX 2 2 0 -2
BITMAP
66
16
ENDCHAR
STARTCHAR quotedblleft
ENCODING 8220
SWIDTH 297 0
DWIDTH 4 0
BBX 4 2 0 4
BITMAP
6161
6666
ENDCHAR
STARTCHAR quotedblright
ENCODING 8221
SWIDTH 297 0
DWIDTH 4 0
BBX 4 2 0 4
BITMAP
6666
0606
ENDCHAR
STARTCHAR quotedblbase
ENCODING 8222
SWIDTH 297 0
DWIDTH 4 0
BBX 4 2 0 -2
BITMAP
6666
1616
ENDCHAR
STARTCHAR bullet
ENCODING 8226
SWIDTH 302 0
DWIDTH 4 0
BBX 4 4 0 1
BITMAP
0671
3416
3416
0671
ENDCHAR
STARTCHAR ellipsis
ENCODING 8230
SWIDTH 528 0
DWIDTH 7 0
BBX 7 2 0 0
BITMAP
11011110
66076660
ENDCHAR
STARTCHAR guilsinglleft
ENCODING 8249
SWIDTH 178 0
DWIDTH 2 0
BBX 2 4 0 1
BITMAP
02
26
35
04
ENDCHAR
STARTCHAR guilsinglright
ENCODING 8250
SWIDTH 178 0
DWIDTH 2 0
BBX 2 4 0 1
BITMAP
20
36
27
21
ENDCHAR
STARTCHAR fraction
ENCODING 8260
SWIDTH 362 0
DWIDTH 5 0
BBX 5 6 0 0
BITMAP
001770
006720
017700
067100
176000
771000
ENDCHAR
STARTCHAR uni2074
ENCODING 8308
SWIDTH 204 0
DWIDTH 3 0
BBX 3 3 0 3
BITMAP
1800
2420
5840
ENDCHAR
STARTCHAR Euro
ENCODING 8364
SWIDTH 462 0
DWIDTH 6 0
BBX 6 6 0 0
BITMAP
027673
075666
666100
666100
075666
027673
ENDCHAR
STARTCHAR trademark
ENCODING 8482
SWIDTH 461 0
DWIDTH 6 0
BBX 6 3 0 3
BITMAP
BD7838
061697
061506
ENDCHAR
STARTCHAR minus
ENCODING 8722
SWIDTH 420 0
DWIDTH 6 0
BBX 6 2 0 2
BITMAP
6DDDD4
6DDDD4
ENDCHAR
STARTCHAR uni2215
ENCODING 8725
SWIDTH 278 0
DWIDTH 4 0
BBX 4 6 0 0
BITMAP
0033
0176
0571
0770
1750
6710
ENDCHAR
STARTCHAR .notdef
ENCODING -1
SWIDTH 500 0
DWIDTH 7 0
BBX 7 16 0 -3
BITMAP
4CBBBC40
46000640
46000640
46000640
46000640
46000640
46000640
46000640
46000640
46000640
46000640
46000640
46000640
46000640
46000640
4BBBBB40
ENDCHAR
STARTCHAR NULL
ENCODING -1
SWIDTH 600 0
DWIDTH 8 0
BBX 1 1 0 0
BITMAP
00
ENDCHAR
STARTCHAR acutecomb.case
ENCODING -1
SWIDTH 0 0
DWIDTH 0 0
BBX 4 3 0 13
BITMAP
0077
0672
1770
ENDCHAR
STARTCHAR ampersand.case
ENCODING -1
SWIDTH 797 0
DWIDTH 11 0
BBX 11 12 0 0
BITMAP
000666710000
006266370000
006767762000
008752782000
007775880000
005875620000
076787204100
576488827730
677037773700
656768764000
174665887200
027678477800
ENDCHAR
STARTCHAR asciicircum.case
ENCODING -1
SWIDTH 540 0
DWIDTH 8 0
BBX 8 6 0 6
BITMAP
00071000
00366000
00774500
05647700
07702760
67200771
ENDCHAR
STARTCHAR asciitilde.case
ENCODING -1
SWIDTH 640 0
DWIDTH 9 0
BBX 9 4 0 4
BITMAP
1677400120
2667987920
2877756620
2000277600
ENDCHAR
STARTCHAR asterisk.case
ENCODING -1
SWIDTH 482 0
DWIDTH 7 0
BBX 6 6 0 6
BITMAP
004810
075455
271037
024050
047463
002020
ENDCHAR
STARTCHAR at.case
ENCODING -1
SWIDTH 915 0
DWIDTH 13 0
BBX 13 12 0 0
BITMAP
00036666630000
00645777545000
04582000284400
07801668508700
27528106704720
58166005701850
58176106701740
27428668613620
07702666211700
04483000266100
00644665530000
00037666610000
ENDCHAR
STARTCHAR backslash.case
ENCODING -1
SWIDTH 504 0
DWIDTH 7 0
BBX 7 14 0 -1
BITMAP
33300000
77700000
37730000
07760000
07770000
04772000
00776000
00777000
00477200
00077600
00077700
00047720
00007760
00007770
ENDCHAR
STARTCHAR bar.case
ENCODING -1
SWIDTH 262 0
DWIDTH 4 0
BBX 3 14 0 -1
BITMAP
2440
4870
4870
4870
4870
4870
4870
4870
4870
4870
4870
4870
4870
4870
ENDCHAR
STARTCHAR braceleft.case
ENCODING -1
SWIDTH 504 0
DWIDTH 7 0
BBX 7 14 0 -1
BITMAP
00555520
00666520
00666520
00666000
00666000
00666000
26666000
26666000
26666000
00666000
00666000
00666520
00666520
00555520
ENDCHAR
STARTCHAR braceright.case
ENCODING -1
SWIDTH 506 0
DWIDTH 7 0
BBX 7 14 0 -2
BITMAP
26555000
26666000
26666000
00666000
00666000
00666520
00666520
00666520
00666000
00666000
00666000
26666000
26666000
26555000
ENDCHAR
STARTCHAR bracketleft.case
ENCODING -1
SWIDTH 453 0
DWIDTH 6 0
BBX 6 14 0 -1
BITMAP
355374
487374
487374
487000
487000
487000
487000
487000
487000
487000
487000
487374
487374
355374
ENDCHAR
STARTCHAR bracketright.case
ENCODING -1
SWIDTH 453 0
DWIDTH 6 0
BBX 6 14 0 -2
BITMAP
276555
276666
276666
000666
000666
000666
000666
000666
000666
000666
000666
276666
276666
276555
ENDCHAR
STARTCHAR brokenbar.case
ENCODING -1
SWIDTH 262 0
DWIDTH 4 0
BBX 3 14 0 0
BITMAP
2440
4870
4870
4870
4870
4870
2440
0000
4870
4870
4870
4870
4870
4870
ENDCHAR
STARTCHAR bullet.case
ENCODING -1
SWIDTH 503 0
DWIDTH 7 0
BBX 7 6 0 3
BITMAP
01677100
08666800
37302740
37302740
08666800
01677100
ENDCHAR
STARTCHAR uni0327.case
ENCODING -1
SWIDTH 0 0
DWIDTH 0 0
BBX 4 4 0 -4
BITMAP
0140
0974
0107
1774
ENDCHAR
STARTCHAR cent.case
ENCODING -1
SWIDTH 577 0
DWIDTH 8 0
BBX 8 14 0 -1
BITMAP
00001000
00018400
00018400
00267740
03767764
07757750
27740100
47800000
27740100
07757750
03767764
00278740
00018400
00018400
ENDCHAR
STARTCHAR uni0302.case
ENCODING -1
SWIDTH 0 0
DWIDTH 0 0
BBX 7 3 0 13
BITMAP
00775000
04665700
17806640
ENDCHAR
STARTCHAR colon.case
ENCODING -1
SWIDTH 262 0
DWIDTH 4 0
BBX 3 8 0 0
BITMAP
4870
4870
2330
0000
0000
2330
4870
4870
ENDCHAR
STARTCHAR comma.case
ENCODING -1
SWIDTH 338 0
DWIDTH 5 0
BBX 4 4 0 -1
BITMAP
0555
0766
0776
3773
ENDCHAR
STARTCHAR copyright.case
ENCODING -1
SWIDTH 895 0
DWIDTH 13 0
BBX 13 12 0 0
BITMAP
00046666610000
00736777463000
06481000476100
16802666026700
67127666407700
77067101005810
77067100004810
67128666407700
16702777026700
06471000566100
00735666363000
00046666610000
ENDCHAR
STARTCHAR currency.case
ENCODING -1
SWIDTH 676 0
DWIDTH 9 0
BBX 9 10 0 0
BITMAP
0040001300
1663007620
2755773660
0257768300
0077047200
0077047200
0457768310
4655772670
0671006620
0120000300
ENDCHAR
STARTCHAR degree.case
ENCODING -1
SWIDTH 413 0
DWIDTH 6 0
BBX 6 5 0 7
BITMAP
067750
547762
770175
477781
047720
ENDCHAR
STARTCHAR uni0308.case
ENCODING -1
SWIDTH 0 0
DWIDTH 0 0
BBX 8 3 0 12
BITMAP
07712770
43166042
07712770
ENDCHAR
STARTCHAR divide.case
ENCODING -1
SWIDTH 618 0
DWIDTH 9 0
BBX 8 8 0 2
BITMAP
00018200
00052700
00018200
27777776
27777776
27777776
00026300
00027300
ENDCHAR
STARTCHAR uni2215.case
ENCODING -1
SWIDTH 483 0
DWIDTH 7 0
BBX 7 12 0 0
BITMAP
00047730
00077700
00077700
00377300
00677000
00777000
02774000
06770000
07770000
17750000
67710000
77700000
ENDCHAR
STARTCHAR dollar.case
ENCODING -1
SWIDTH 660 0
DWIDTH 9 0
BBX 9 14 0 -1
BITMAP
0001420000
0013852000
0574867700
3774858650
7672857530
6666420000
1877775000
0177776710
0001676660
0131747660
5654866770
1874867730
0174857300
0001840000
ENDCHAR
STARTCHAR eight.case
ENCODING -1
SWIDTH 561 0
DWIDTH 8 0
BBX 8 12 0 0
BITMAP
02766710
16466370
65677753
67701775
58721684
089A7550
1358A960
67603893
67701675
65666754
17466370
02766710
ENDCHAR
STARTCHAR ellipsis.case
ENCODING -1
SWIDTH 766 0
DWIDTH 11 0
BBX 10 3 0 0
BITMAP
2330222133
4870666488
4870666488
ENDCHAR
STARTCHAR emdash.case
ENCODING -1
SWIDTH 790 0
DWIDTH 11 0
BBX 11 3 0 4
BITMAP
277777777720
277777777720
277777777720
ENDCHAR
STARTCHAR endash.case
ENCODING -1
SWIDTH 721 0
DWIDTH 10 0
BBX 10 3 0 4
BITMAP
2777777773
2777777773
2777777773
ENDCHAR
STARTCHAR equal.case
ENCODING -1
SWIDTH 618 0
DWIDTH 9 0
BBX 8 7 0 2
BITMAP
27777776
27777776
27777776
00000000
27777776
27777776
27777776
ENDCHAR
STARTCHAR Euro.case
ENCODING -1
SWIDTH 767 0
DWIDTH 11 0
BBX 11 12 0 0
BITMAP
000166666000
003647774800
017767766510
056650003000
566666600000
000000000000
ACCCCCC10000
055510000000
026781006000
007467776510
001736663810
000066666000
ENDCHAR
STARTCHAR exclam.case
ENCODING -1
SWIDTH 262 0
DWIDTH 4 0
BBX 3 12 0 0
BITMAP
4870
4870
4870
4870
4870
4870
4870
4870
3650
2330
4870
4870
ENDCHAR
STARTCHAR exclamdown.case
ENCODING -1
SWIDTH 262 0
DWIDTH 4 0
BBX 3 12 0 -3
BITMAP
4770
4770
2330
3650
4770
4770
4770
4770
4770
4770
4770
4770
ENDCHAR
STARTCHAR five.case
ENCODING -1
SWIDTH 558 0
DWIDTH 8 0
BBX 8 12 0 0
BITMAP
26666660
26666660
26666660
47800000
47836400
47800360
4786C751
12201965
55501675
55666663
17466470
02666710
ENDCHAR
STARTCHAR four.case
ENCODING -1
SWIDTH 585 0
DWIDTH 8 0
BBX 8 12 0 0
BITMAP
00067710
00077700
00677200
00777000
05772000
07770000
35536660
47756665
47756665
47756665
00006660
00006660
ENDCHAR
STARTCHAR uni2074.case
ENCODING -1
SWIDTH 312 0
DWIDTH 4 0
BBX 4 5 0 7
BITMAP
0671
0770
3464
4767
4767
ENDCHAR
STARTCHAR fraction.case
ENCODING -1
SWIDTH 655 0
DWIDTH 9 0
BBX 9 12 0 0
BITMAP
0000005630
0000007700
0000056300
0000077000
0000672000
0000770000
0006720000
0017700000
0067100000
0176000000
0671000000
1760000000
ENDCHAR
STARTCHAR gravecomb.case
ENCODING -1
SWIDTH 0 0
DWIDTH 0 0
BBX 4 3 0 13
BITMAP
1770
0672
0077
ENDCHAR
STARTCHAR greater.case
ENCODING -1
SWIDTH 677 0
DWIDTH 9 0
BBX 9 11 0 0
BITMAP
1000000000
3720000000
3776100000
3777750000
0177777300
0002767750
0047656300
2767770000
3777300000
3750000000
2000000000
ENDCHAR
STARTCHAR guillemotleft.case
ENCODING -1
SWIDTH 666 0
DWIDTH 9 0
BBX 9 8 0 2
BITMAP
0001000010
0037000640
0567017650
2567054650
2771057500
2677057750
0668017650
0037000640
ENDCHAR
STARTCHAR guillemotright.case
ENCODING -1
SWIDTH 666 0
DWIDTH 9 0
BBX 9 8 0 2
BITMAP
1000010000
1710046000
2773056700
2757056450
0387006750
2786057740
2774056710
2710055000
ENDCHAR
STARTCHAR guilsinglleft.case
ENCODING -1
SWIDTH 338 0
DWIDTH 5 0
BBX 4 8 0 2
BITMAP
0001
0037
0567
2567
2771
2677
0668
0037
ENDCHAR
STARTCHAR guilsinglright.case
ENCODING -1
SWIDTH 338 0
DWIDTH 5 0
BBX 4 8 0 2
BITMAP
1000
1710
2773
2757
0387
2786
2774
2710
ENDCHAR
STARTCHAR hyphen.case
ENCODING -1
SWIDTH 445 0
DWIDTH 6 0
BBX 6 3 0 4
BITMAP
277773
277773
277773
ENDCHAR
STARTCHAR less.case
ENCODING -1
SWIDTH 677 0
DWIDTH 9 0
BBX 9 11 0 0
BITMAP
0000000030
0000001760
0000067760
0003777750
0247567100
2777760000
0067777400
0002777770
0000037770
0000000560
0000000010
ENDCHAR
STARTCHAR logicalnot.case
ENCODING -1
SWIDTH 618 0
DWIDTH 9 0
BBX 8 6 0 1
BITMAP
27777776
27777776
27777776
00000587
00000587
00000232
ENDCHAR
STARTCHAR uni00B5.case
ENCODING -1
SWIDTH 792 0
DWIDTH 11 0
BBX 11 15 0 -3
BITMAP
487000288200
487000288200
487000288200
487000288200
487000288200
487000288200
487000288200
487000377200
487100777200
487366567650
487466466550
487566631750
487000000000
487000000000
477000000000
ENDCHAR
STARTCHAR minus.case
ENCODING -1
SWIDTH 618 0
DWIDTH 9 0
BBX 8 3 0 4
BITMAP
27777776
27777776
27777776
ENDCHAR
STARTCHAR multiply.case
ENCODING -1
SWIDTH 580 0
DWIDTH 8 0
BBX 8 8 0 2
BITMAP
00100220
03922761
34757764
06377640
02776620
17764692
04645450
00200400
ENDCHAR
STARTCHAR nine.case
ENCODING -1
SWIDTH 558 0
DWIDTH 8 0
BBX 8 12 0 -1
BITMAP
02766610
17466370
56566753
67700676
66700676
439C7676
07100676
00564676
33300776
66677753
17566470
02766610
ENDCHAR
STARTCHAR numbersign.case
ENCODING -1
SWIDTH 776 0
DWIDTH 11 0
BBX 11 12 0 0
BITMAP
000774077500
003871177300
056774777710
056665777710
046665777710
005550555000
277775666400
277774676400
277774775400
023203771000
067605760000
066606660000
ENDCHAR
STARTCHAR one.case
ENCODING -1
SWIDTH 378 0
DWIDTH 5 0
BBX 5 12 0 0
BITMAP
556660
556660
556660
006660
006660
006660
006660
006660
006660
006660
006660
006660
ENDCHAR
STARTCHAR onehalf.case
ENCODING -1
SWIDTH 735 0
DWIDTH 10 0
BBX 10 12 0 0
BITMAP
2566000770
2566004640
0066007700
0066056300
0066077000
0000563000
0000773772
0005726556
0007700376
0067202670
0177005773
0671005773
ENDCHAR
STARTCHAR onequarter.case
ENCODING -1
SWIDTH 722 0
DWIDTH 10 0
BBX 10 12 0 0
BITMAP
2566000770
2566004640
0066007700
0066056300
0066077000
0000563000
0000771760
0005726710
0007705544
0067217476
0177017476
0671000000
ENDCHAR
STARTCHAR uni00B9.case
ENCODING -1
SWIDTH 306 0
DWIDTH 4 0
BBX 4 5 0 7
BITMAP
2566
2566
0066
0066
0066
ENDCHAR
STARTCHAR ordfeminine.case
ENCODING -1
SWIDTH 456 0
DWIDTH 6 0
BBX 6 5 0 7
BITMAP
007910
017860
067860
079972
279786
ENDCHAR
STARTCHAR ordmasculine.case
ENCODING -1
SWIDTH 489 0
DWIDTH 7 0
BBX 7 6 0 6
BITMAP
03777200
17665800
46204710
37204710
08676700
01776000
ENDCHAR
STARTCHAR paragraph.case
ENCODING -1
SWIDTH 893 0
DWIDTH 13 0
BBX 12 12 0 0
BITMAP
037666666665
265666666665
666766666665
667000477066
665766588066
186666588066
016666588066
000000488066
000000488066
000000488066
000000488066
000000488066
ENDCHAR
STARTCHAR parenleft.case
ENCODING -1
SWIDTH 290 0
DWIDTH 4 0
BBX 5 14 0 -1
BITMAP
004420
058810
077700
178400
487000
666000
666000
666000
666000
577000
288200
077600
067700
028830
ENDCHAR
STARTCHAR parenright.case
ENCODING -1
SWIDTH 290 0
DWIDTH 4 0
BBX 5 14 -1 -2
BITMAP
288300
077700
057700
018830
007760
006660
006660
006660
006660
007850
038820
077700
078600
244100
ENDCHAR
STARTCHAR percent.case
ENCODING -1
SWIDTH 827 0
DWIDTH 12 0
BBX 12 12 0 0
BITMAP
066750007771
547762056650
770175177800
476681777300
047822777000
000008771000
000576400000
001777056610
007772677780
037770770472
088710746670
576500176730
ENDCHAR
STARTCHAR period.case
ENCODING -1
SWIDTH 262 0
DWIDTH 4 0
BBX 3 3 0 0
BITMAP
2330
4870
4870
ENDCHAR
STARTCHAR periodcentered.case
ENCODING -1
SWIDTH 262 0
DWIDTH 4 0
BBX 3 3 0 4
BITMAP
2330
4870
4870
ENDCHAR
STARTCHAR plus.case
ENCODING -1
SWIDTH 616 0
DWIDTH 9 0
BBX 8 8 0 2
BITMAP
00043400
00066600
00066600
27466776
27466776
27466776
00066600
00066600
ENDCHAR
STARTCHAR plusminus.case
ENCODING -1
SWIDTH 618 0
DWIDTH 9 0
BBX 8 11 0 0
BITMAP
00043400
00066600
00066600
27466776
27466776
27466776
00066600
00066600
27777776
27777776
27777776
ENDCHAR
STARTCHAR question.case
ENCODING -1
SWIDTH 598 0
DWIDTH 8 0
BBX 8 12 0 0
BITMAP
00677730
07477571
17877666
47710776
00001676
00017772
00078740
00077600
00066400
00033200
00077500
00077500
ENDCHAR
STARTCHAR questiondown.case
ENCODING -1
SWIDTH 598 0
DWIDTH 8 0
BBX 8 12 0 -3
BITMAP
00067500
00067500
00033200
00056400
00177400
01887100
07864000
38630000
47710666
26877666
07377571
00777720
ENDCHAR
STARTCHAR quotedbl.case
ENCODING -1
SWIDTH 464 0
DWIDTH 7 0
BBX 7 4 0 8
BITMAP
66628820
66628820
66628820
55526620
ENDCHAR
STARTCHAR quotedblbase.case
ENCODING -1
SWIDTH 464 0
DWIDTH 7 0
BBX 7 4 0 -1
BITMAP
66627720
66627720
26615720
05502620
ENDCHAR
STARTCHAR quotedblleft.case
ENCODING -1
SWIDTH 464 0
DWIDTH 7 0
BBX 7 4 0 7
BITMAP
55026300
66227510
66627720
66627720
ENDCHAR
STARTCHAR quotedblright.case
ENCODING -1
SWIDTH 464 0
DWIDTH 7 0
BBX 7 4 0 8
BITMAP
66627720
66627720
26615720
05502620
ENDCHAR
STARTCHAR quoteleft.case
ENCODING -1
SWIDTH 212 0
DWIDTH 3 0
BBX 3 4 0 7
BITMAP
5500
6620
6660
6660
ENDCHAR
STARTCHAR quoteright.case
ENCODING -1
SWIDTH 212 0
DWIDTH 3 0
BBX 3 4 0 8
BITMAP
6660
6660
2660
0550
ENDCHAR
STARTCHAR quotesinglbase.case
ENCODING -1
SWIDTH 212 0
DWIDTH 3 0
BBX 3 4 0 -1
BITMAP
6660
6660
2660
0550
ENDCHAR
STARTCHAR quotesingle.case
ENCODING -1
SWIDTH 212 0
DWIDTH 3 0
BBX 3 4 0 8
BITMAP
6660
6660
6660
5550
ENDCHAR
STARTCHAR registered.case
ENCODING -1
SWIDTH 895 0
DWIDTH 13 0
BBX 13 12 0 0
BITMAP
00046666610000
00736777463000
06481000476100
16804866226700
67106A66707700
77006A67705810
77006AAA004810
67106637407700
16704404426700
06471000566100
00735666363000
00046666610000
ENDCHAR
STARTCHAR uni030A.case
ENCODING -1
SWIDTH 0 0
DWIDTH 0 0
BBX 4 4 0 12
BITMAP
0671
3406
3406
0671
ENDCHAR
STARTCHAR section.case
ENCODING -1
SWIDTH 645 0
DWIDTH 9 0
BBX 9 15 0 -2
BITMAP
0037775000
0497778810
0775664750
0678102000
0658A75000
0066568700
0763586810
2775027730
1777356800
0757866200
0176566700
0001576720
3567778710
1866776700
0157775000
ENDCHAR
STARTCHAR semicolon.case
ENCODING -1
SWIDTH 338 0
DWIDTH 5 0
BBX 4 10 0 -1
BITMAP
0133
0488
0488
0000
0000
0000
0555
0766
0776
3773
ENDCHAR
STARTCHAR seven.case
ENCODING -1
SWIDTH 505 0
DWIDTH 7 0
BBX 7 12 0 0
BITMAP
46666630
46666630
46666630
00016630
00057710
00077700
00077600
00277300
00677000
00776000
00775000
03772000
ENDCHAR
STARTCHAR six.case
ENCODING -1
SWIDTH 558 0
DWIDTH 8 0
BBX 8 12 0 0
BITMAP
02666710
17466470
65677663
67700343
66656400
66600360
6669C751
66601965
67701675
65666663
17466470
02766710
ENDCHAR
STARTCHAR slash.case
ENCODING -1
SWIDTH 504 0
DWIDTH 7 0
BBX 7 14 0 -1
BITMAP
00003330
00007770
00027740
00067700
00077700
00277400
00677000
00777000
01775000
06771000
07770000
17750000
57710000
77700000
ENDCHAR
STARTCHAR uni00AD.case
ENCODING -1
SWIDTH 445 0
DWIDTH 6 0
BBX 6 3 0 4
BITMAP
277773
277773
277773
ENDCHAR
STARTCHAR sterling.case
ENCODING -1
SWIDTH 618 0
DWIDTH 9 0
BBX 9 12 0 0
BITMAP
0167775000
0847764600
3677667710
5770026410
2552000000
5777772000
5777772000
5777772000
1776000000
7777777720
6777777720
6777777720
ENDCHAR
STARTCHAR three.case
ENCODING -1
SWIDTH 558 0
DWIDTH 8 0
BBX 8 12 0 0
BITMAP
02766610
17566470
66677664
33300775
00016562
00000360
0001C751
00001965
67601675
55666663
07466470
01666710
ENDCHAR
STARTCHAR threequarters.case
ENCODING -1
SWIDTH 722 0
DWIDTH 10 0
BBX 10 12 0 0
BITMAP
0775000770
3576004640
0055007700
0047056300
3677077000
0673563000
0000771760
0005726710
0007705544
0067217476
0177017476
0671000000
ENDCHAR
STARTCHAR uni00B3.case
ENCODING -1
SWIDTH 332 0
DWIDTH 5 0
BBX 4 6 0 6
BITMAP
0775
3576
0055
0047
3677
0673
ENDCHAR
STARTCHAR tildecomb.case
ENCODING -1
SWIDTH 0 0
DWIDTH 0 0
BBX 6 2 0 12
BITMAP
077305
220575
ENDCHAR
STARTCHAR trademark.case
ENCODING -1
SWIDTH 850 0
DWIDTH 12 0
BBX 12 6 0 6
BITMAP
677756930585
689756783785
04820687A785
048206646385
048206602085
048206600085
ENDCHAR
STARTCHAR two.case
ENCODING -1
SWIDTH 558 0
DWIDTH 8 0
BBX 8 12 0 0
BITMAP
02777710
08577480
56677753
66601775
00002683
00017880
00188820
01877300
06554000
27777770
27777770
27777770
ENDCHAR
STARTCHAR uni00B2.case
ENCODING -1
SWIDTH 339 0
DWIDTH 5 0
BBX 4 6 0 6
BITMAP
0776
2677
0188
0654
2776
2776
ENDCHAR
STARTCHAR underscore.case
ENCODING -1
SWIDTH 667 0
DWIDTH 9 0
BBX 9 3 0 0
BITMAP
2777777740
2777777740
2777777740
ENDCHAR
STARTCHAR yen.case
ENCODING -1
SWIDTH 769 0
DWIDTH 11 0
BBX 11 12 0 0
BITMAP
777300066640
177800277700
046660777200
007774666000
001778570000
000666530000
000033300000
006566664000
006566664000
006566664000
000066600000
000066600000
ENDCHAR
STARTCHAR zero.case
ENCODING -1
SWIDTH 558 0
DWIDTH 8 0
BBX 8 12 0 0
BITMAP
02666610
17466370
65677753
67700776
66600676
66600676
66600676
66600676
67700676
65666753
17466370
02766710
ENDCHAR
ENDFONT
